<?xml version="1.0" standalone="no"?>
<!DOCTYPE svg PUBLIC "-//W3C//DTD SVG 20010904//EN"
 "http://www.w3.org/TR/2001/REC-SVG-20010904/DTD/svg10.dtd">
<svg version="1.0" xmlns="http://www.w3.org/2000/svg"
 width="700.000000pt" height="700.000000pt" viewBox="0 0 700.000000 700.000000"
 preserveAspectRatio="xMidYMid meet">
<metadata>
Created by potrace 1.11, written by Peter Selinger 2001-2013
</metadata>
<g transform="translate(0.000000,700.000000) scale(0.100000,-0.100000)"
fill="#000000" stroke="none">
<path d="M3423 6963 c-38 -19 -81 -42 -97 -51 -50 -26 -151 -21 -220 11 -83
38 -101 40 -135 11 -36 -30 -54 -101 -45 -182 16 -153 165 -476 329 -712 39
-57 48 -80 32 -84 -97 -26 -92 -27 -144 26 -92 95 -207 166 -338 209 -64 20
-90 23 -305 24 -272 2 -331 13 -485 90 -49 25 -103 48 -120 50 -72 13 -136
-76 -101 -143 9 -17 29 -40 46 -52 73 -52 263 -125 382 -147 18 -3 130 -6 248
-7 118 -1 233 -6 254 -10 68 -15 171 -74 240 -137 37 -34 64 -64 61 -67 -3 -3
-29 -6 -58 -7 -455 -17 -827 -184 -998 -448 -37 -57 -40 -74 -23 -129 7 -22
65 -58 95 -58 36 0 72 29 123 97 106 144 295 244 566 299 19 4 42 8 50 9 8 1
40 5 70 9 30 4 96 9 146 10 81 3 92 1 103 -16 11 -17 9 -22 -9 -35 -28 -20
-164 -128 -211 -168 -448 -380 -735 -707 -981 -1120 -43 -73 -149 -275 -153
-295 -1 -3 -12 -27 -24 -55 -84 -184 -174 -504 -196 -700 -3 -27 -8 -66 -11
-85 -6 -45 -6 -320 0 -385 3 -27 7 -68 10 -90 l5 -41 -102 18 c-56 10 -174 21
-262 24 -88 4 -162 8 -164 11 -3 2 -6 49 -7 106 -2 113 -15 157 -61 197 -60
55 -63 55 -387 55 l-301 0 -43 -29 c-23 -16 -52 -45 -65 -65 l-22 -36 -3
-1280 c-3 -1432 -8 -1333 69 -1399 22 -18 54 -37 72 -41 18 -4 158 -7 312 -7
306 -1 312 0 371 59 45 45 57 88 59 208 0 64 5 109 10 108 11 -2 538 -197 725
-268 395 -149 609 -225 635 -223 3 0 36 -5 73 -11 47 -8 342 -11 992 -8 920 3
925 3 1010 25 96 25 223 74 290 110 25 14 110 67 190 117 80 50 282 178 450
284 168 106 328 207 355 226 28 18 138 88 245 155 604 380 798 506 826 532 17
16 44 55 60 86 26 51 29 67 29 152 0 85 -3 101 -29 152 -56 111 -151 177 -266
186 -97 7 -145 -8 -412 -124 -130 -57 -239 -104 -243 -104 -3 0 7 19 23 43 39
56 124 217 152 287 12 30 26 64 31 75 39 92 92 323 105 455 15 142 9 455 -10
545 -2 11 -7 42 -10 69 -4 27 -9 52 -11 55 -1 3 -6 22 -9 41 -24 147 -116 415
-212 615 -111 230 -299 525 -450 705 -172 204 -361 399 -528 545 -38 33 -76
67 -85 75 -25 23 -210 171 -273 218 -32 23 -58 44 -58 45 0 1 6 22 14 47 18
61 13 125 -14 188 -24 55 -86 118 -127 128 -13 4 -23 10 -23 15 0 6 26 49 58
97 170 252 305 533 327 681 16 103 -6 191 -54 215 -34 16 -40 15 -131 -27 -70
-33 -172 -29 -236 8 -100 57 -124 67 -191 72 -68 5 -70 4 -168 -47 -85 -45
-109 -53 -160 -55 -73 -2 -100 6 -188 58 -61 36 -77 40 -143 43 -69 3 -79 1
-141 -33z"/>
</g>
</svg>
